<svg width="16" height="25" fill="none" xmlns="http://www.w3.org/2000/svg"><path d="M6.318 17.508c-1.927-.2-3.664-.675-5.152-1.839-.184-.145-.375-.284-.543-.446-.651-.625-.717-1.341-.202-2.08.441-.63 1.181-.8 1.95-.437.149.07.29.158.427.252 2.772 1.905 6.58 1.958 9.363.086.276-.212.57-.384.912-.472.664-.17 1.283.074 1.64.655.407.663.401 1.31-.1 1.826-.77.79-1.695 1.361-2.723 1.76-.973.377-2.038.567-3.092.693.16.173.234.258.334.358 1.43 1.438 2.868 2.87 4.295 4.313.486.491.588 1.1.32 1.672-.293.625-.948 1.036-1.59.992-.407-.028-.724-.23-1.006-.515-1.08-1.087-2.18-2.153-3.239-3.26-.308-.323-.456-.262-.728.018a216.764 216.764 0 0 1-3.301 3.315c-.5.492-1.093.58-1.671.3-.615-.299-1.006-.926-.976-1.557.02-.427.23-.753.524-1.045 1.416-1.414 2.828-2.832 4.242-4.25.093-.093.18-.193.316-.339z" fill="#BDBDBD"/><path d="M7.492 12.581C4.055 12.57 1.236 9.72 1.256 6.277 1.276 2.796 4.096-.01 7.568 0c3.478.01 6.27 2.855 6.253 6.372-.018 3.436-2.856 6.221-6.329 6.21zm3.125-6.296a3.064 3.064 0 0 0-3.074-3.072 3.069 3.069 0 0 0-3.081 3.109A3.064 3.064 0 0 0 7.559 9.37a3.058 3.058 0 0 0 3.058-3.085z" fill="#BDBDBD"/></svg>