<svg width="16" height="25" viewBox="0 0 16 25" fill="none" xmlns="http://www.w3.org/2000/svg">
<path d="M6.31831 17.5082C4.39139 17.3072 2.65398 16.8326 1.16649 15.6692C0.981916 15.5245 0.791359 15.3849 0.622928 15.2233C-0.0281439 14.598 -0.0937458 13.8818 0.421437 13.1438C0.862167 12.5123 1.60201 12.3433 2.37101 12.7059C2.51992 12.7762 2.66179 12.864 2.79768 12.9582C5.56988 14.863 9.37817 14.9156 12.1608 13.0438C12.4365 12.8325 12.7312 12.6601 13.0727 12.5721C13.7368 12.4016 14.3561 12.6455 14.7125 13.2266C15.1196 13.8902 15.1144 14.5379 14.6128 15.053C13.8433 15.8429 12.9178 16.4143 11.8895 16.8131C10.9172 17.19 9.85222 17.3798 8.79817 17.5058C8.95723 17.6789 9.0322 17.7641 9.13165 17.864C10.5629 19.3021 12.0004 20.7341 13.427 22.1766C13.913 22.6681 14.0146 23.2775 13.7469 23.8491C13.4543 24.4739 12.7994 24.885 12.1571 24.841C11.7503 24.8129 11.4329 24.6103 11.151 24.3263C10.0709 23.2395 8.9705 22.1727 7.91228 21.0652C7.60432 20.7432 7.45619 20.8041 7.18441 21.0837C6.09782 22.2023 4.99352 23.3038 3.88272 24.399C3.38393 24.8907 2.79039 24.9792 2.21195 24.6983C1.59706 24.4003 1.2058 23.7726 1.23599 23.1418C1.25682 22.7152 1.46664 22.3892 1.75951 22.0969C3.17593 20.6826 4.58846 19.2646 6.0015 17.8479C6.09496 17.7536 6.18216 17.6537 6.31831 17.5082Z" fill="#BDBDBD"/>
<path d="M7.49231 12.5813C4.05472 12.5695 1.23592 9.71977 1.25597 6.27672C1.27575 2.79565 4.09637 -0.00960729 7.5678 2.47299e-05C11.0463 0.00939642 13.8382 2.85501 13.8208 6.37226C13.8031 9.80828 10.9648 12.5932 7.49231 12.5813ZM10.6165 6.28505C10.6105 4.57549 9.24898 3.21452 7.54281 3.21295C5.82232 3.21113 4.44859 4.59684 4.46186 6.32201C4.47462 8.02506 5.84783 9.3764 7.55869 9.37016C9.26434 9.36417 10.6222 7.99434 10.6165 6.28505Z" fill="#BDBDBD"/>
</svg>
